<svg width="97" height="97" xmlns="http://www.w3.org/2000/svg" xmlns:xlink="http://www.w3.org/1999/xlink" xml:space="preserve" overflow="hidden"><g transform="translate(-275 -194)"><path d="M346.133 214.208C349.258 214.208 351.792 216.742 351.792 219.867L351.792 265.133C351.792 268.258 349.258 270.792 346.133 270.792L300.867 270.792C297.742 270.792 295.208 268.258 295.208 265.133L295.208 219.867C295.208 216.742 297.742 214.208 300.867 214.208Z" fill="#C74634"/><path d="M308.317 257.616 316.326 257.616 316.326 260.341 303.962 260.341 303.962 258.097 309.061 252.544C310.041 251.476 310.819 250.577 311.399 249.846 311.978 249.115 312.392 248.488 312.641 247.963 312.891 247.438 313.015 246.942 313.015 246.481 313.015 244.595 311.884 243.652 309.624 243.652 308.057 243.652 306.367 244.15 304.551 245.147L304.551 242.291C305.316 241.847 306.188 241.496 307.168 241.237 308.148 240.978 309.098 240.85 310.024 240.85 312.001 240.85 313.534 241.318 314.632 242.251 315.727 243.184 316.276 244.507 316.276 246.215 316.276 246.909 316.121 247.623 315.807 248.35 315.494 249.081 315.002 249.9 314.325 250.806 313.648 251.715 312.749 252.783 311.628 254.009L308.317 257.612ZM325.352 248.724 330.533 243.332 330.533 241.197 318.946 241.197 318.946 243.921 326.316 243.921 320.816 249.714 321.91 251.53C322.392 251.351 322.863 251.22 323.325 251.129 323.786 251.041 324.278 250.994 324.793 250.994 325.915 250.994 326.777 251.287 327.383 251.877 327.99 252.463 328.293 253.258 328.293 254.255 328.293 255.393 327.909 256.285 327.144 256.925 326.38 257.565 325.292 257.885 323.887 257.885 322.981 257.885 322.072 257.777 321.163 257.565 320.257 257.353 319.428 257.05 318.68 256.656L318.68 259.485C319.391 259.876 320.209 260.176 321.136 260.381 322.062 260.586 323.032 260.688 324.046 260.688 326.322 260.688 328.107 260.118 329.397 258.98 330.687 257.841 331.334 256.275 331.334 254.281 331.334 252.645 330.809 251.321 329.758 250.317 328.707 249.31 327.239 248.781 325.352 248.728ZM339.306 243.241 339.306 248.246 338.171 248.246 337.932 247.151C337.659 247.552 337.319 247.865 336.908 248.084 336.497 248.303 336.043 248.414 335.548 248.414 334.79 248.414 334.19 248.205 333.746 247.784 333.301 247.363 333.079 246.794 333.079 246.074 333.079 245.306 333.358 244.706 333.921 244.265 334.483 243.827 335.248 243.605 336.221 243.605L337.609 243.605 337.609 243.254C337.609 242.786 337.511 242.47 337.316 242.301 337.12 242.133 336.773 242.049 336.278 242.049 335.541 242.049 334.699 242.22 333.756 242.567L333.756 241.237C334.13 241.079 334.554 240.951 335.032 240.86 335.51 240.765 335.975 240.718 336.433 240.718 338.35 240.718 339.306 241.56 339.306 243.241ZM337.639 244.699 336.42 244.699C335.288 244.699 334.722 245.11 334.722 245.932 334.722 246.306 334.827 246.599 335.032 246.808 335.238 247.017 335.527 247.124 335.901 247.124 336.248 247.124 336.575 247.033 336.881 246.852 337.188 246.67 337.44 246.414 337.639 246.087L337.639 244.699ZM341.075 237.983 341.075 239.385 343.025 239.385 343.025 237.983 341.075 237.983ZM340.583 241.57 341.324 242.116 341.324 248.243 343.035 248.243 343.035 240.87 340.583 240.87 340.583 241.57ZM305.562 226.96 310.051 233.666 311.557 233.666 311.557 224.309 309.96 224.309 309.96 231.028 305.467 224.309 303.962 224.309 303.962 233.666 305.558 233.666 305.558 226.96ZM322.998 233.666 324.453 228.886 325.922 233.666 327.185 233.666 329.128 226.896 327.596 226.896 326.386 231.412 325.1 227.088 323.827 227.088 322.54 231.335 321.368 226.896 319.785 226.896 321.742 233.666 323.002 233.666ZM335.042 224.309 333.432 224.309 333.432 233.666 335.042 233.666 335.042 224.309ZM318.802 233.342C318.519 233.487 318.175 233.605 317.771 233.689 317.367 233.773 316.939 233.817 316.484 233.817 315.37 233.817 314.517 233.514 313.931 232.904 313.345 232.295 313.049 231.409 313.049 230.24 313.049 229.125 313.328 228.263 313.891 227.66 314.453 227.054 315.245 226.754 316.265 226.754 317.208 226.754 317.922 227.024 318.401 227.559 318.882 228.095 319.122 228.863 319.122 229.856L319.122 230.732 314.605 230.732C314.666 231.375 314.861 231.843 315.191 232.133 315.521 232.426 316.003 232.571 316.639 232.571 317.016 232.571 317.374 232.534 317.707 232.463 318.04 232.389 318.408 232.271 318.802 232.11L318.802 233.346ZM314.595 229.624 317.683 229.624C317.673 228.499 317.198 227.937 316.255 227.937 315.225 227.937 314.672 228.499 314.595 229.624ZM342.418 227.455C342.007 226.987 341.411 226.754 340.63 226.754 340.125 226.754 339.667 226.862 339.259 227.078 338.852 227.293 338.498 227.596 338.198 227.99L337.966 226.896 336.922 226.896 336.922 233.666 338.491 233.666 338.491 229.29C338.646 228.913 338.875 228.614 339.178 228.391 339.481 228.169 339.818 228.058 340.189 228.058 341.037 228.058 341.462 228.556 341.462 229.55L341.462 233.669 343.031 233.669 343.031 229.499C343.031 228.607 342.826 227.926 342.415 227.458Z" fill="#FFFFFF"/></g></svg>